<mxfile host="65bd71144e">
    <diagram id="SOwIwbaEFUGh3ZVeX1Ic" name="Page-1">
        <mxGraphModel dx="2777" dy="2186" grid="0" gridSize="10" guides="1" tooltips="1" connect="1" arrows="1" fold="1" page="1" pageScale="1" pageWidth="1800" pageHeight="1600" background="#ffffff" math="0" shadow="0">
            <root>
                <mxCell id="0"/>
                <mxCell id="1" parent="0"/>
                <mxCell id="82" value="" style="group;shadow=0;" parent="1" vertex="1" connectable="0">
                    <mxGeometry x="210" y="110" width="1360" height="1150" as="geometry"/>
                </mxCell>
                <mxCell id="2" value="" style="strokeWidth=1;shadow=1;dashed=0;align=center;html=1;shape=mxgraph.mockup.containers.browserWindow;rSize=0;strokeColor2=#008cff;strokeColor3=#c4c4c4;mainText=,;recursiveResize=0;fillColor=#E6E6E6;sketch=1;curveFitting=1;jiggle=2;rounded=1;strokeColor=#000000;" parent="82" vertex="1">
                    <mxGeometry x="227" width="910" height="1145" as="geometry"/>
                </mxCell>
                <mxCell id="5" value="" style="edgeStyle=none;html=1;sketch=1;curveFitting=1;jiggle=2;" parent="2" source="3" target="4" edge="1">
                    <mxGeometry relative="1" as="geometry"/>
                </mxCell>
                <mxCell id="3" value="von Schappler" style="strokeWidth=1;shadow=0;dashed=0;align=center;html=1;shape=mxgraph.mockup.containers.anchor;fontSize=17;fontColor=#666666;align=left;sketch=1;curveFitting=1;jiggle=2;rounded=1;" parent="2" vertex="1">
                    <mxGeometry x="58" y="12" width="110" height="26" as="geometry"/>
                </mxCell>
                <mxCell id="4" value="http://personal-site.com" style="strokeWidth=1;shadow=0;dashed=0;align=center;html=1;shape=mxgraph.mockup.containers.anchor;rSize=0;fontSize=17;fontColor=#666666;align=left;sketch=1;curveFitting=1;jiggle=2;rounded=1;" parent="2" vertex="1">
                    <mxGeometry x="130" y="60" width="250" height="26" as="geometry"/>
                </mxCell>
                <mxCell id="7" value="" style="verticalLabelPosition=bottom;shadow=0;dashed=0;align=center;html=1;verticalAlign=top;strokeWidth=1;shape=mxgraph.mockup.containers.userMale;strokeColor=#000000;strokeColor2=#008cff;fillColor=none;gradientColor=none;perimeterSpacing=0;sketch=1;curveFitting=1;jiggle=2;rounded=1;" parent="2" vertex="1">
                    <mxGeometry x="28" y="190" width="170" height="170" as="geometry"/>
                </mxCell>
                <mxCell id="6" value="" style="rounded=1;whiteSpace=wrap;html=1;sketch=1;fillColor=none;gradientColor=none;strokeColor=#000000;curveFitting=1;jiggle=2;" parent="2" vertex="1">
                    <mxGeometry x="10" y="170" width="890" height="210" as="geometry"/>
                </mxCell>
                <mxCell id="8" value="" style="rounded=1;whiteSpace=wrap;html=1;shadow=0;sketch=1;strokeColor=#000000;fillColor=none;gradientColor=none;curveFitting=1;jiggle=2;" parent="2" vertex="1">
                    <mxGeometry x="10" y="120" width="890" height="40" as="geometry"/>
                </mxCell>
                <mxCell id="9" value="" style="rounded=1;whiteSpace=wrap;html=1;shadow=0;sketch=1;strokeColor=#000000;fillColor=default;gradientColor=none;fillStyle=hachure;curveFitting=1;jiggle=2;" parent="2" vertex="1">
                    <mxGeometry x="800" y="130" width="80" height="20" as="geometry"/>
                </mxCell>
                <mxCell id="10" value="" style="rounded=1;whiteSpace=wrap;html=1;shadow=0;sketch=1;strokeColor=#000000;fillColor=default;gradientColor=none;fillStyle=hachure;curveFitting=1;jiggle=2;" parent="2" vertex="1">
                    <mxGeometry x="700" y="130" width="80" height="20" as="geometry"/>
                </mxCell>
                <mxCell id="11" value="" style="rounded=1;whiteSpace=wrap;html=1;shadow=0;sketch=1;strokeColor=#000000;fillColor=default;gradientColor=none;fillStyle=hachure;curveFitting=1;jiggle=2;" parent="2" vertex="1">
                    <mxGeometry x="600" y="130" width="80" height="20" as="geometry"/>
                </mxCell>
                <mxCell id="12" value="" style="rounded=1;whiteSpace=wrap;html=1;shadow=0;sketch=1;strokeColor=#000000;fillColor=default;gradientColor=none;fillStyle=hachure;curveFitting=1;jiggle=2;" parent="2" vertex="1">
                    <mxGeometry x="500" y="130" width="80" height="20" as="geometry"/>
                </mxCell>
                <mxCell id="13" value="" style="rounded=1;whiteSpace=wrap;html=1;shadow=0;sketch=1;strokeColor=#000000;fillColor=default;gradientColor=none;fillStyle=hachure;curveFitting=1;jiggle=2;" parent="2" vertex="1">
                    <mxGeometry x="400" y="130" width="80" height="20" as="geometry"/>
                </mxCell>
                <mxCell id="29" value="" style="rounded=1;whiteSpace=wrap;html=1;shadow=0;sketch=1;strokeColor=#000000;fillColor=default;gradientColor=none;fillStyle=hachure;curveFitting=1;jiggle=2;" parent="2" vertex="1">
                    <mxGeometry x="230" y="200" width="650" height="70" as="geometry"/>
                </mxCell>
                <mxCell id="30" value="" style="rounded=1;whiteSpace=wrap;html=1;shadow=0;sketch=1;strokeColor=#000000;fillColor=default;gradientColor=none;fillStyle=hachure;curveFitting=1;jiggle=2;" parent="2" vertex="1">
                    <mxGeometry x="230" y="280" width="650" height="30" as="geometry"/>
                </mxCell>
                <mxCell id="31" value="" style="rounded=1;whiteSpace=wrap;html=1;shadow=0;sketch=1;strokeColor=#000000;fillColor=default;gradientColor=none;fillStyle=hachure;curveFitting=1;jiggle=2;" parent="2" vertex="1">
                    <mxGeometry x="230" y="320" width="90" height="30" as="geometry"/>
                </mxCell>
                <mxCell id="32" value="" style="rounded=1;whiteSpace=wrap;html=1;sketch=1;fillColor=none;gradientColor=none;strokeColor=#000000;curveFitting=1;jiggle=2;" parent="2" vertex="1">
                    <mxGeometry x="10" y="390" width="890" height="240" as="geometry"/>
                </mxCell>
                <mxCell id="34" value="" style="rounded=1;whiteSpace=wrap;html=1;shadow=0;sketch=1;strokeColor=#000000;fillColor=default;gradientColor=none;fillStyle=hachure;curveFitting=1;jiggle=2;" parent="2" vertex="1">
                    <mxGeometry x="28" y="454.38" width="252" height="155" as="geometry"/>
                </mxCell>
                <mxCell id="35" value="" style="rounded=1;whiteSpace=wrap;html=1;shadow=0;sketch=1;strokeColor=#000000;fillColor=default;gradientColor=none;fillStyle=hachure;curveFitting=1;jiggle=2;" parent="2" vertex="1">
                    <mxGeometry x="628" y="454.38" width="252" height="155" as="geometry"/>
                </mxCell>
                <mxCell id="36" value="" style="rounded=1;whiteSpace=wrap;html=1;shadow=0;sketch=1;strokeColor=#000000;fillColor=default;gradientColor=none;fillStyle=hachure;curveFitting=1;jiggle=2;" parent="2" vertex="1">
                    <mxGeometry x="328" y="454.38" width="252" height="155" as="geometry"/>
                </mxCell>
                <mxCell id="37" value="" style="rounded=1;whiteSpace=wrap;html=1;shadow=0;sketch=1;strokeColor=#000000;fillColor=default;gradientColor=none;fillStyle=hachure;curveFitting=1;jiggle=2;" parent="2" vertex="1">
                    <mxGeometry x="90" y="411.88" width="190" height="27.5" as="geometry"/>
                </mxCell>
                <mxCell id="38" value="" style="rounded=1;whiteSpace=wrap;html=1;shadow=0;sketch=1;strokeColor=#000000;fillColor=default;gradientColor=none;fillStyle=hachure;curveFitting=1;jiggle=2;" parent="2" vertex="1">
                    <mxGeometry x="680" y="411.88" width="200" height="27.5" as="geometry"/>
                </mxCell>
                <mxCell id="39" value="" style="rounded=1;whiteSpace=wrap;html=1;shadow=0;sketch=1;strokeColor=#000000;fillColor=default;gradientColor=none;fillStyle=hachure;curveFitting=1;jiggle=2;" parent="2" vertex="1">
                    <mxGeometry x="380" y="411.88" width="200" height="25" as="geometry"/>
                </mxCell>
                <mxCell id="40" value="" style="rounded=1;whiteSpace=wrap;html=1;shadow=0;sketch=1;strokeColor=#000000;fillColor=default;gradientColor=none;fillStyle=hachure;curveFitting=1;jiggle=2;" parent="2" vertex="1">
                    <mxGeometry x="28" y="411.88" width="32" height="27.5" as="geometry"/>
                </mxCell>
                <mxCell id="41" value="" style="rounded=1;whiteSpace=wrap;html=1;shadow=0;sketch=1;strokeColor=#000000;fillColor=default;gradientColor=none;fillStyle=hachure;curveFitting=1;jiggle=2;" parent="2" vertex="1">
                    <mxGeometry x="628" y="410.63" width="32" height="27.5" as="geometry"/>
                </mxCell>
                <mxCell id="42" value="" style="rounded=1;whiteSpace=wrap;html=1;shadow=0;sketch=1;strokeColor=#000000;fillColor=default;gradientColor=none;fillStyle=hachure;curveFitting=1;jiggle=2;" parent="2" vertex="1">
                    <mxGeometry x="328" y="411.88" width="32" height="25" as="geometry"/>
                </mxCell>
                <mxCell id="43" value="" style="rounded=1;whiteSpace=wrap;html=1;sketch=1;fillColor=none;gradientColor=none;strokeColor=#000000;curveFitting=1;jiggle=2;" parent="2" vertex="1">
                    <mxGeometry x="9" y="1010" width="890" height="120" as="geometry"/>
                </mxCell>
                <mxCell id="44" value="" style="rounded=1;whiteSpace=wrap;html=1;shadow=0;sketch=1;strokeColor=#000000;fillColor=default;gradientColor=none;fillStyle=hachure;curveFitting=1;jiggle=2;" parent="2" vertex="1">
                    <mxGeometry x="28" y="1020" width="240" height="50" as="geometry"/>
                </mxCell>
                <mxCell id="45" value="" style="rounded=1;whiteSpace=wrap;html=1;shadow=0;sketch=1;strokeColor=#000000;fillColor=default;gradientColor=none;fillStyle=hachure;curveFitting=1;jiggle=2;" parent="2" vertex="1">
                    <mxGeometry x="640" y="1020" width="240" height="50" as="geometry"/>
                </mxCell>
                <mxCell id="46" value="" style="rounded=1;whiteSpace=wrap;html=1;shadow=0;sketch=1;strokeColor=#000000;fillColor=default;gradientColor=none;fillStyle=hachure;curveFitting=1;jiggle=2;" parent="2" vertex="1">
                    <mxGeometry x="334" y="1020" width="240" height="50" as="geometry"/>
                </mxCell>
                <mxCell id="47" value="" style="rounded=1;whiteSpace=wrap;html=1;shadow=0;sketch=1;strokeColor=#000000;fillColor=default;gradientColor=none;fillStyle=hachure;curveFitting=1;jiggle=2;" parent="2" vertex="1">
                    <mxGeometry x="30" y="1090" width="850" height="30" as="geometry"/>
                </mxCell>
                <mxCell id="48" value="" style="rounded=1;whiteSpace=wrap;html=1;shadow=0;sketch=1;fillStyle=hachure;strokeColor=#000000;fillColor=none;gradientColor=none;curveFitting=1;jiggle=2;" parent="2" vertex="1">
                    <mxGeometry x="10" y="640" width="420" height="360" as="geometry"/>
                </mxCell>
                <mxCell id="49" value="" style="rounded=1;whiteSpace=wrap;html=1;shadow=0;sketch=1;fillStyle=hachure;strokeColor=#000000;fillColor=none;gradientColor=none;curveFitting=1;jiggle=2;" parent="2" vertex="1">
                    <mxGeometry x="480" y="640" width="419" height="360" as="geometry"/>
                </mxCell>
                <mxCell id="50" value="" style="rounded=1;whiteSpace=wrap;html=1;shadow=0;sketch=1;strokeColor=#000000;fillColor=default;gradientColor=none;fillStyle=hachure;curveFitting=1;jiggle=2;" parent="2" vertex="1">
                    <mxGeometry x="28" y="650" width="382" height="27.5" as="geometry"/>
                </mxCell>
                <mxCell id="51" value="" style="rounded=1;whiteSpace=wrap;html=1;shadow=0;sketch=1;strokeColor=#000000;fillColor=default;gradientColor=none;fillStyle=hachure;curveFitting=1;jiggle=2;" parent="2" vertex="1">
                    <mxGeometry x="498" y="650" width="382" height="27.5" as="geometry"/>
                </mxCell>
                <mxCell id="54" value="" style="rounded=1;whiteSpace=wrap;html=1;shadow=0;sketch=1;fillStyle=hachure;strokeColor=#000000;fillColor=none;gradientColor=none;curveFitting=1;jiggle=2;" parent="2" vertex="1">
                    <mxGeometry x="28" y="690" width="382" height="300" as="geometry"/>
                </mxCell>
                <mxCell id="56" value="" style="html=1;verticalLabelPosition=bottom;labelBackgroundColor=#ffffff;verticalAlign=top;shadow=0;dashed=0;strokeWidth=2;shape=mxgraph.ios7.misc.scroll_(vertical);fillColor=#a0a0a0;sketch=1;fillStyle=hachure;strokeColor=default;curveFitting=1;jiggle=2;rounded=1;" parent="2" vertex="1">
                    <mxGeometry x="400" y="690" width="6" height="300" as="geometry"/>
                </mxCell>
                <mxCell id="57" value="" style="rounded=1;whiteSpace=wrap;html=1;shadow=0;sketch=1;strokeColor=#000000;fillColor=default;gradientColor=none;fillStyle=hachure;curveFitting=1;jiggle=2;" parent="2" vertex="1">
                    <mxGeometry x="38" y="700" width="102" height="100" as="geometry"/>
                </mxCell>
                <mxCell id="58" value="" style="rounded=1;whiteSpace=wrap;html=1;shadow=0;sketch=1;strokeColor=#000000;fillColor=default;gradientColor=none;fillStyle=hachure;curveFitting=1;jiggle=2;" parent="2" vertex="1">
                    <mxGeometry x="38" y="820" width="102" height="100" as="geometry"/>
                </mxCell>
                <mxCell id="59" value="" style="rounded=1;whiteSpace=wrap;html=1;shadow=0;sketch=1;strokeColor=#000000;fillColor=default;gradientColor=none;fillStyle=hachure;curveFitting=1;jiggle=2;" parent="2" vertex="1">
                    <mxGeometry x="38" y="940" width="102" height="50" as="geometry"/>
                </mxCell>
                <mxCell id="60" value="" style="rounded=1;whiteSpace=wrap;html=1;shadow=0;sketch=1;strokeColor=#000000;fillColor=default;gradientColor=none;fillStyle=hachure;curveFitting=1;jiggle=2;" parent="2" vertex="1">
                    <mxGeometry x="498" y="690" width="382" height="300" as="geometry"/>
                </mxCell>
                <mxCell id="61" value="" style="rounded=1;whiteSpace=wrap;html=1;shadow=0;sketch=1;strokeColor=#000000;fillColor=default;gradientColor=none;fillStyle=hachure;curveFitting=1;jiggle=2;" parent="2" vertex="1">
                    <mxGeometry x="160" y="700" width="230" height="100" as="geometry"/>
                </mxCell>
                <mxCell id="62" value="" style="rounded=1;whiteSpace=wrap;html=1;shadow=0;sketch=1;strokeColor=#000000;fillColor=default;gradientColor=none;fillStyle=hachure;curveFitting=1;jiggle=2;" parent="2" vertex="1">
                    <mxGeometry x="160" y="820" width="230" height="100" as="geometry"/>
                </mxCell>
                <mxCell id="63" value="" style="rounded=1;whiteSpace=wrap;html=1;shadow=0;sketch=1;strokeColor=#000000;fillColor=default;gradientColor=none;fillStyle=hachure;curveFitting=1;jiggle=2;" parent="2" vertex="1">
                    <mxGeometry x="160" y="940" width="230" height="50" as="geometry"/>
                </mxCell>
                <mxCell id="67" style="edgeStyle=none;html=1;entryX=1;entryY=0.5;entryDx=0;entryDy=0;endArrow=none;endFill=0;strokeColor=#000000;" parent="82" source="66" target="8" edge="1">
                    <mxGeometry relative="1" as="geometry"/>
                </mxCell>
                <mxCell id="66" value="Header with navigation linis" style="rounded=0;whiteSpace=wrap;html=1;shadow=0;fillStyle=hachure;glass=0;fillColor=none;strokeColor=#030303;fontColor=#000000;" parent="82" vertex="1">
                    <mxGeometry x="1217" y="120" width="120" height="40" as="geometry"/>
                </mxCell>
                <mxCell id="69" style="edgeStyle=none;hachureGap=4;html=1;entryX=0;entryY=0.5;entryDx=0;entryDy=0;fontFamily=Architects Daughter;fontSource=https%3A%2F%2Ffonts.googleapis.com%2Fcss%3Ffamily%3DArchitects%2BDaughter;fontSize=16;strokeColor=#000000;endArrow=none;endFill=0;" parent="82" source="68" target="6" edge="1">
                    <mxGeometry relative="1" as="geometry"/>
                </mxCell>
                <mxCell id="68" value="Hero section with profile picture - this design can be changed if necessary" style="rounded=0;whiteSpace=wrap;html=1;shadow=0;fillStyle=hachure;glass=0;fillColor=none;strokeColor=#030303;fontColor=#000000;" parent="82" vertex="1">
                    <mxGeometry y="241" width="159" height="68" as="geometry"/>
                </mxCell>
                <mxCell id="72" style="edgeStyle=none;hachureGap=4;html=1;entryX=1;entryY=0.5;entryDx=0;entryDy=0;fontFamily=Architects Daughter;fontSource=https%3A%2F%2Ffonts.googleapis.com%2Fcss%3Ffamily%3DArchitects%2BDaughter;fontSize=16;exitX=0;exitY=0.5;exitDx=0;exitDy=0;strokeColor=#030303;endArrow=none;endFill=0;" parent="82" source="71" target="29" edge="1">
                    <mxGeometry relative="1" as="geometry"/>
                </mxCell>
                <mxCell id="73" style="edgeStyle=none;hachureGap=4;html=1;exitX=0;exitY=0.75;exitDx=0;exitDy=0;entryX=1;entryY=0.5;entryDx=0;entryDy=0;fontFamily=Architects Daughter;fontSource=https%3A%2F%2Ffonts.googleapis.com%2Fcss%3Ffamily%3DArchitects%2BDaughter;fontSize=16;strokeColor=#030303;endArrow=none;endFill=0;" parent="82" source="71" target="30" edge="1">
                    <mxGeometry relative="1" as="geometry"/>
                </mxCell>
                <mxCell id="71" value="Headings with name and slogan" style="rounded=0;whiteSpace=wrap;html=1;shadow=0;fillStyle=hachure;glass=0;fillColor=none;strokeColor=#030303;fontColor=#000000;" parent="82" vertex="1">
                    <mxGeometry x="1236" y="230" width="120" height="40" as="geometry"/>
                </mxCell>
                <mxCell id="75" style="edgeStyle=none;sketch=0;hachureGap=4;jiggle=2;curveFitting=1;html=1;exitX=1;exitY=0.5;exitDx=0;exitDy=0;entryX=0;entryY=0.5;entryDx=0;entryDy=0;strokeColor=#030303;fontFamily=Architects Daughter;fontSource=https%3A%2F%2Ffonts.googleapis.com%2Fcss%3Ffamily%3DArchitects%2BDaughter;fontSize=16;endArrow=none;endFill=0;" parent="82" source="74" target="32" edge="1">
                    <mxGeometry relative="1" as="geometry"/>
                </mxCell>
                <mxCell id="74" value="Skills section" style="rounded=0;whiteSpace=wrap;html=1;shadow=0;fillStyle=hachure;glass=0;fillColor=none;strokeColor=#030303;fontColor=#000000;" parent="82" vertex="1">
                    <mxGeometry x="25" y="490" width="120" height="40" as="geometry"/>
                </mxCell>
                <mxCell id="77" style="edgeStyle=none;sketch=0;hachureGap=4;jiggle=2;curveFitting=1;html=1;entryX=0;entryY=0.5;entryDx=0;entryDy=0;strokeColor=#030303;fontFamily=Architects Daughter;fontSource=https%3A%2F%2Ffonts.googleapis.com%2Fcss%3Ffamily%3DArchitects%2BDaughter;fontSize=16;endArrow=none;endFill=0;" parent="82" source="76" target="48" edge="1">
                    <mxGeometry relative="1" as="geometry"/>
                </mxCell>
                <mxCell id="76" value="Projects section" style="rounded=0;whiteSpace=wrap;html=1;shadow=0;fillStyle=hachure;glass=0;fillColor=none;strokeColor=#030303;fontColor=#000000;" parent="82" vertex="1">
                    <mxGeometry x="19.5" y="799" width="120" height="40" as="geometry"/>
                </mxCell>
                <mxCell id="79" style="edgeStyle=none;sketch=0;hachureGap=4;jiggle=2;curveFitting=1;html=1;entryX=1;entryY=0.5;entryDx=0;entryDy=0;strokeColor=#030303;fontFamily=Architects Daughter;fontSource=https%3A%2F%2Ffonts.googleapis.com%2Fcss%3Ffamily%3DArchitects%2BDaughter;fontSize=16;endArrow=none;endFill=0;" parent="82" source="78" target="49" edge="1">
                    <mxGeometry relative="1" as="geometry"/>
                </mxCell>
                <mxCell id="78" value="Hobbies / About section" style="rounded=0;whiteSpace=wrap;html=1;shadow=0;fillStyle=hachure;glass=0;fillColor=none;strokeColor=#030303;fontColor=#000000;" parent="82" vertex="1">
                    <mxGeometry x="1236" y="799" width="120" height="40" as="geometry"/>
                </mxCell>
                <mxCell id="81" style="edgeStyle=none;sketch=0;hachureGap=4;jiggle=2;curveFitting=1;html=1;entryX=1;entryY=0.5;entryDx=0;entryDy=0;strokeColor=#030303;fontFamily=Architects Daughter;fontSource=https%3A%2F%2Ffonts.googleapis.com%2Fcss%3Ffamily%3DArchitects%2BDaughter;fontSize=16;endArrow=none;endFill=0;" parent="82" source="80" target="43" edge="1">
                    <mxGeometry relative="1" as="geometry"/>
                </mxCell>
                <mxCell id="80" value="Footer with contact information" style="rounded=0;whiteSpace=wrap;html=1;shadow=0;fillStyle=hachure;glass=0;fillColor=none;strokeColor=#030303;fontColor=#000000;" parent="82" vertex="1">
                    <mxGeometry x="1236" y="1050" width="120" height="40" as="geometry"/>
                </mxCell>
            </root>
        </mxGraphModel>
    </diagram>
</mxfile>